<svg width="768" height="178" viewBox="0 0 768 178" fill="none" xmlns="http://www.w3.org/2000/svg">
<path d="M218.02 59.2C223.72 59.2 228.812 59.846 233.296 61.138C237.856 62.354 241.694 64.178 244.81 66.61C247.926 68.966 250.32 71.892 251.992 75.388C253.664 78.808 254.5 82.722 254.5 87.13C254.5 93.21 252.98 98.34 249.94 102.52C246.9 106.7 242.53 109.892 236.83 112.096L255.64 139H236.83L220.072 115.06H218.02H193.51V139H176.98V59.2H218.02ZM193.51 67.75V106.51H218.02C224.024 106.51 228.66 104.952 231.928 101.836C235.196 98.644 236.83 93.742 236.83 87.13C236.83 80.518 235.196 75.654 231.928 72.538C228.66 69.346 224.024 67.75 218.02 67.75H193.51ZM302.358 133.3C306.082 133.3 309.54 132.654 312.732 131.362C316 130.07 319.192 128.246 322.308 125.89L326.868 132.73C325.424 134.022 323.714 135.2 321.738 136.264C319.838 137.328 317.748 138.24 315.468 139C313.264 139.684 310.946 140.216 308.514 140.596C306.082 141.052 303.65 141.28 301.218 141.28C295.822 141.28 290.882 140.558 286.398 139.114C281.99 137.746 278.228 135.732 275.112 133.072C271.996 130.336 269.564 126.992 267.816 123.04C266.144 119.088 265.308 114.528 265.308 109.36C265.308 104.268 266.106 99.746 267.702 95.794C269.374 91.766 271.654 88.422 274.542 85.762C277.506 83.026 281.002 80.974 285.03 79.606C289.058 78.162 293.504 77.44 298.368 77.44C302.928 77.44 307.222 78.124 311.25 79.492C315.278 80.86 318.774 82.874 321.738 85.534C324.702 88.118 327.058 91.272 328.806 94.996C330.554 98.72 331.428 102.938 331.428 107.65V115.63H282.75C283.662 121.938 285.828 126.46 289.248 129.196C292.744 131.932 297.114 133.3 302.358 133.3ZM298.368 84.85C296.164 84.85 294.112 85.268 292.212 86.104C290.312 86.94 288.64 88.27 287.196 90.094C285.828 91.918 284.688 94.274 283.776 97.162C282.94 100.05 282.484 103.546 282.408 107.65H314.328C314.328 103.698 313.872 100.278 312.96 97.39C312.048 94.502 310.832 92.146 309.312 90.322C307.868 88.422 306.158 87.054 304.182 86.218C302.282 85.306 300.344 84.85 298.368 84.85ZM408.422 128.17H409.562L422.672 79.72H439.202L423.242 139H399.302L388.472 97.96H387.332L376.502 139H352.562L336.602 79.72H353.132L366.242 128.17H367.382L378.782 85.42H397.022L408.422 128.17ZM460.395 120.19C460.395 127.41 464.765 131.02 473.505 131.02H489.465V109.36H473.505C464.765 109.36 460.395 112.97 460.395 120.19ZM489.465 101.38C489.465 95.908 488.021 91.88 485.133 89.296C482.321 86.712 478.635 85.42 474.075 85.42C470.655 85.42 467.311 85.952 464.043 87.016C460.775 88.004 457.849 89.372 455.265 91.12L451.275 84.28C452.947 83.14 454.771 82.152 456.747 81.316C458.799 80.48 460.889 79.796 463.017 79.264C465.145 78.656 467.235 78.2 469.287 77.896C471.415 77.592 473.391 77.44 475.215 77.44C480.079 77.44 484.373 78.01 488.097 79.15C491.821 80.29 494.975 81.924 497.559 84.052C500.143 86.18 502.081 88.726 503.373 91.69C504.741 94.578 505.425 97.808 505.425 101.38V139H473.505C463.169 139 455.531 137.442 450.591 134.326C445.727 131.21 443.295 126.498 443.295 120.19C443.295 113.882 445.727 109.17 450.591 106.054C455.531 102.938 463.169 101.38 473.505 101.38H489.465ZM565.791 87.7H552.111C546.943 87.7 542.991 89.106 540.255 91.918C537.519 94.654 536.151 98.758 536.151 104.23V139H520.191V104.23C520.191 96.478 522.623 90.474 527.487 86.218C532.427 81.886 539.495 79.72 548.691 79.72H565.791V87.7ZM617.586 131.02V87.7H603.336C600.752 87.7 598.358 88.118 596.154 88.954C594.026 89.714 592.164 90.968 590.568 92.716C589.048 94.464 587.832 96.706 586.92 99.442C586.084 102.178 585.666 105.484 585.666 109.36C585.666 113.236 586.084 116.542 586.92 119.278C587.832 122.014 589.048 124.256 590.568 126.004C592.164 127.752 594.026 129.044 596.154 129.88C598.358 130.64 600.752 131.02 603.336 131.02H617.586ZM603.336 139C598.092 139 593.304 138.316 588.972 136.948C584.716 135.58 581.068 133.604 578.028 131.02C574.988 128.436 572.632 125.32 570.96 121.672C569.364 118.024 568.566 113.92 568.566 109.36C568.566 104.8 569.364 100.696 570.96 97.048C572.632 93.4 574.988 90.284 578.028 87.7C581.068 85.116 584.716 83.14 588.972 81.772C593.304 80.404 598.092 79.72 603.336 79.72H617.586V59.2H633.546V139H603.336Z" fill="white"/>
<path d="M670.547 111.07H705.887L688.787 68.89H687.647L670.547 111.07ZM701.327 59.2L733.817 139H717.401L709.877 119.62H666.557L659.033 139H642.617L675.107 59.2H701.327ZM759.502 139H742.972V59.2H759.502V139Z" fill="url(#paint0_linear_25_165)"/>
<path d="M645.275 168H634.491V146.656H644.987C648.891 146.656 651.067 149.088 651.067 152.096C651.067 154.784 649.339 156.576 647.355 156.992C649.627 157.344 651.483 159.616 651.483 162.24C651.483 165.536 649.275 168 645.275 168ZM644.219 155.488C646.139 155.488 647.227 154.336 647.227 152.736C647.227 151.136 646.139 149.952 644.219 149.952H638.235V155.488H644.219ZM644.379 164.704C646.427 164.704 647.643 163.584 647.643 161.728C647.643 160.128 646.523 158.784 644.379 158.784H638.235V164.704H644.379ZM664.064 168H660.32V159.136L652.032 146.656H656.32L662.208 155.808L668.032 146.656H672.32L664.064 159.136V168ZM696.018 168H682.866V146.656H686.61V164.704H696.018V168ZM714.021 168H699.397V146.656H714.021V149.952H703.141V155.488H713.797V158.784H703.141V164.704H714.021V168ZM728.106 168.416C721.93 168.416 716.906 164.032 716.906 157.344C716.906 150.656 721.93 146.304 728.106 146.304C732.266 146.304 734.986 148.288 736.714 150.752L733.642 152.48C732.522 150.88 730.506 149.632 728.106 149.632C723.882 149.632 720.746 152.864 720.746 157.344C720.746 161.824 723.882 165.088 728.106 165.088C730.282 165.088 732.202 164.064 733.162 163.168V159.84H726.794V156.544H736.906V164.544C734.794 166.88 731.818 168.416 728.106 168.416ZM750.755 168.384C744.355 168.384 739.843 163.712 739.843 157.344C739.843 150.976 744.355 146.304 750.755 146.304C757.155 146.304 761.667 150.976 761.667 157.344C761.667 163.712 757.155 168.384 750.755 168.384ZM750.755 165.056C755.043 165.056 757.827 161.728 757.827 157.344C757.827 152.928 755.043 149.632 750.755 149.632C746.435 149.632 743.683 152.928 743.683 157.344C743.683 161.728 746.435 165.056 750.755 165.056Z" fill="white"/>
<mask id="path-3-inside-1_25_165" fill="white">
<path fill-rule="evenodd" clip-rule="evenodd" d="M25 58.45C25 57.535 25.3635 56.6575 26.0105 56.0105C26.6575 55.3635 27.535 55 28.45 55H33.8825C36.378 55.0001 38.7893 55.9019 40.6726 57.5391C42.5558 59.1764 43.7841 61.4389 44.1312 63.9101L44.4118 65.9111H108.65C110.368 65.9111 112.059 66.3386 113.57 67.1551C115.081 67.9716 116.365 69.1513 117.307 70.588C118.248 72.0246 118.817 73.673 118.963 75.3845C119.108 77.096 118.825 78.8168 118.14 80.3918L105.867 108.58C105.063 110.428 103.736 112.001 102.051 113.106C100.365 114.211 98.3931 114.799 96.3775 114.799H53.3173C50.8219 114.799 48.4105 113.898 46.5273 112.26C44.6441 110.623 43.4158 108.361 43.0686 105.889L37.3003 64.8715C37.1849 64.0472 36.7754 63.2925 36.1473 62.7464C35.5192 62.2003 34.7148 61.8997 33.8825 61.8999H28.4546C27.5396 61.8999 26.6621 61.5365 26.0151 60.8895C25.3681 60.2425 25.0046 59.365 25.0046 58.45M45.387 72.811L49.9042 104.928C50.0196 105.752 50.4291 106.507 51.0572 107.053C51.6853 107.599 52.4896 107.9 53.3219 107.9H96.3821C97.0539 107.9 97.7112 107.704 98.2734 107.337C98.8356 106.969 99.2782 106.445 99.5469 105.83L111.815 77.6318C112.042 77.1073 112.135 76.5347 112.086 75.9653C112.037 75.3959 111.848 74.8476 111.534 74.3696C111.221 73.8916 110.794 73.499 110.291 73.227C109.789 72.9549 109.226 72.812 108.655 72.811H45.387Z"/>
</mask>
<path fill-rule="evenodd" clip-rule="evenodd" d="M25 58.45C25 57.535 25.3635 56.6575 26.0105 56.0105C26.6575 55.3635 27.535 55 28.45 55H33.8825C36.378 55.0001 38.7893 55.9019 40.6726 57.5391C42.5558 59.1764 43.7841 61.4389 44.1312 63.9101L44.4118 65.9111H108.65C110.368 65.9111 112.059 66.3386 113.57 67.1551C115.081 67.9716 116.365 69.1513 117.307 70.588C118.248 72.0246 118.817 73.673 118.963 75.3845C119.108 77.096 118.825 78.8168 118.14 80.3918L105.867 108.58C105.063 110.428 103.736 112.001 102.051 113.106C100.365 114.211 98.3931 114.799 96.3775 114.799H53.3173C50.8219 114.799 48.4105 113.898 46.5273 112.26C44.6441 110.623 43.4158 108.361 43.0686 105.889L37.3003 64.8715C37.1849 64.0472 36.7754 63.2925 36.1473 62.7464C35.5192 62.2003 34.7148 61.8997 33.8825 61.8999H28.4546C27.5396 61.8999 26.6621 61.5365 26.0151 60.8895C25.3681 60.2425 25.0046 59.365 25.0046 58.45M45.387 72.811L49.9042 104.928C50.0196 105.752 50.4291 106.507 51.0572 107.053C51.6853 107.599 52.4896 107.9 53.3219 107.9H96.3821C97.0539 107.9 97.7112 107.704 98.2734 107.337C98.8356 106.969 99.2782 106.445 99.5469 105.83L111.815 77.6318C112.042 77.1073 112.135 76.5347 112.086 75.9653C112.037 75.3959 111.848 74.8476 111.534 74.3696C111.221 73.8916 110.794 73.499 110.291 73.227C109.789 72.9549 109.226 72.812 108.655 72.811H45.387Z" fill="url(#paint1_linear_25_165)"/>
<path d="M28.45 55V54V55ZM33.8825 55L33.8826 54H33.8825V55ZM44.1312 63.9101L45.1215 63.7712L45.1215 63.771L44.1312 63.9101ZM44.4118 65.9111L43.4215 66.05L43.5423 66.9111H44.4118V65.9111ZM108.65 65.9111L108.65 64.9111H108.65V65.9111ZM118.14 80.3918L119.057 80.791L119.057 80.7909L118.14 80.3918ZM105.867 108.58L104.95 108.181L104.95 108.181L105.867 108.58ZM96.3775 114.799V115.799H96.3776L96.3775 114.799ZM53.3173 114.799L53.3173 115.799H53.3173V114.799ZM43.0686 105.889L44.0589 105.75L44.0589 105.75L43.0686 105.889ZM37.3003 64.8715L36.3099 65.0102L36.31 65.0108L37.3003 64.8715ZM33.8825 61.8999V62.8999L33.8828 62.8999L33.8825 61.8999ZM28.4546 61.8999V62.8999V61.8999ZM45.387 72.811V71.811H44.2365L44.3968 72.9503L45.387 72.811ZM49.9042 104.928L50.8945 104.789L50.8944 104.789L49.9042 104.928ZM53.3219 107.9V106.9H53.3216L53.3219 107.9ZM96.3821 107.9L96.383 106.9H96.3821V107.9ZM99.5469 105.83L100.463 106.23L100.464 106.228L99.5469 105.83ZM111.815 77.6318L112.732 78.0307L112.733 78.0291L111.815 77.6318ZM108.655 72.811L108.657 71.811H108.655V72.811ZM25 58.45H26C26 57.8002 26.2581 57.177 26.7176 56.7176L26.0105 56.0105L25.3034 55.3034C24.4688 56.1379 24 57.2698 24 58.45H25ZM26.0105 56.0105L26.7176 56.7176C27.177 56.2581 27.8002 56 28.45 56V55V54C27.2698 54 26.1379 54.4688 25.3034 55.3034L26.0105 56.0105ZM28.45 55V56H33.8825V55V54H28.45V55ZM33.8825 55L33.8825 56C36.1368 56.0001 38.3152 56.8147 40.0165 58.2938L40.6726 57.5391L41.3287 56.7845C39.2635 54.989 36.6191 54.0001 33.8826 54L33.8825 55ZM40.6726 57.5391L40.0165 58.2938C41.7177 59.7729 42.8273 61.8168 43.1409 64.0492L44.1312 63.9101L45.1215 63.771C44.7408 61.0611 43.3939 58.5799 41.3287 56.7845L40.6726 57.5391ZM44.1312 63.9101L43.1409 64.049L43.4215 66.05L44.4118 65.9111L45.4021 65.7722L45.1215 63.7712L44.1312 63.9101ZM44.4118 65.9111V66.9111H108.65V65.9111V64.9111H44.4118V65.9111ZM108.65 65.9111L108.65 66.9111C110.202 66.9111 111.729 67.2973 113.094 68.0349L113.57 67.1551L114.045 66.2753C112.388 65.38 110.534 64.9111 108.65 64.9111L108.65 65.9111ZM113.57 67.1551L113.094 68.0349C114.46 68.7725 115.62 69.8383 116.47 71.1361L117.307 70.588L118.143 70.0399C117.111 68.4644 115.702 67.1707 114.045 66.2753L113.57 67.1551ZM117.307 70.588L116.47 71.1361C117.321 72.434 117.835 73.9231 117.966 75.4692L118.963 75.3845L119.959 75.2999C119.8 73.423 119.176 71.6153 118.143 70.0399L117.307 70.588ZM118.963 75.3845L117.966 75.4692C118.098 77.0154 117.842 78.5699 117.223 79.9927L118.14 80.3918L119.057 80.7909C119.809 79.0638 120.119 77.1767 119.959 75.2999L118.963 75.3845ZM118.14 80.3918L117.223 79.9926L104.95 108.181L105.867 108.58L106.784 108.979L119.057 80.791L118.14 80.3918ZM105.867 108.58L104.95 108.181C104.224 109.851 103.025 111.272 101.502 112.27L102.051 113.106L102.599 113.943C104.447 112.731 105.902 111.006 106.784 108.979L105.867 108.58ZM102.051 113.106L101.502 112.27C99.9795 113.268 98.1983 113.799 96.3775 113.799L96.3775 114.799L96.3776 115.799C98.5878 115.799 100.75 115.154 102.599 113.943L102.051 113.106ZM96.3775 114.799V113.799H53.3173V114.799V115.799H96.3775V114.799ZM53.3173 114.799L53.3174 113.799C51.0631 113.799 48.8847 112.985 47.1834 111.506L46.5273 112.26L45.8712 113.015C47.9364 114.81 50.5807 115.799 53.3173 115.799L53.3173 114.799ZM46.5273 112.26L47.1834 111.506C45.4821 110.027 44.3725 107.983 44.0589 105.75L43.0686 105.889L42.0784 106.028C42.459 108.738 43.806 111.22 45.8712 113.015L46.5273 112.26ZM43.0686 105.889L44.0589 105.75L38.2905 64.7322L37.3003 64.8715L36.31 65.0108L42.0784 106.029L43.0686 105.889ZM37.3003 64.8715L38.2906 64.7328C38.1418 63.6697 37.6136 62.6961 36.8034 61.9917L36.1473 62.7464L35.4911 63.501C35.9372 63.8888 36.228 64.4248 36.3099 65.0102L37.3003 64.8715ZM36.1473 62.7464L36.8034 61.9917C35.9932 61.2873 34.9557 60.8996 33.8822 60.8999L33.8825 61.8999L33.8828 62.8999C34.4739 62.8997 35.0451 63.1132 35.4911 63.501L36.1473 62.7464ZM33.8825 61.8999V60.8999H28.4546V61.8999V62.8999H33.8825V61.8999ZM28.4546 61.8999V60.8999C27.8048 60.8999 27.1816 60.6418 26.7222 60.1824L26.0151 60.8895L25.308 61.5966C26.1425 62.4311 27.2744 62.8999 28.4546 62.8999V61.8999ZM26.0151 60.8895L26.7222 60.1824C26.2627 59.7229 26.0046 59.0997 26.0046 58.45H25.0046H24.0046C24.0046 59.6302 24.4734 60.762 25.308 61.5966L26.0151 60.8895ZM45.387 72.811L44.3968 72.9503L48.9139 105.067L49.9042 104.928L50.8944 104.789L46.3773 72.6718L45.387 72.811ZM49.9042 104.928L48.9138 105.067C49.0627 106.13 49.5909 107.103 50.4011 107.808L51.0572 107.053L51.7133 106.298C51.2673 105.911 50.9765 105.375 50.8945 104.789L49.9042 104.928ZM51.0572 107.053L50.4011 107.808C51.2112 108.512 52.2487 108.9 53.3223 108.9L53.3219 107.9L53.3216 106.9C52.7306 106.9 52.1594 106.686 51.7133 106.298L51.0572 107.053ZM53.3219 107.9V108.9H96.3821V107.9V106.9H53.3219V107.9ZM96.3821 107.9L96.3813 108.9C97.2478 108.9 98.0956 108.648 98.8208 108.174L98.2734 107.337L97.726 106.5C97.3268 106.761 96.86 106.9 96.383 106.9L96.3821 107.9ZM98.2734 107.337L98.8208 108.174C99.5459 107.699 100.117 107.024 100.463 106.23L99.5469 105.83L98.6304 105.43C98.4396 105.867 98.1253 106.239 97.726 106.5L98.2734 107.337ZM99.5469 105.83L100.464 106.228L112.732 78.0307L111.815 77.6318L110.898 77.2328L98.6299 105.431L99.5469 105.83ZM111.815 77.6318L112.733 78.0291C113.026 77.3527 113.146 76.614 113.083 75.8796L112.086 75.9653L111.09 76.051C111.125 76.4554 111.059 76.862 110.897 77.2345L111.815 77.6318ZM112.086 75.9653L113.083 75.8796C113.019 75.1451 112.775 74.4379 112.371 73.8214L111.534 74.3696L110.698 74.9178C110.921 75.2573 111.055 75.6466 111.09 76.051L112.086 75.9653ZM111.534 74.3696L112.371 73.8214C111.967 73.2048 111.416 72.6984 110.767 72.3475L110.291 73.227L109.815 74.1064C110.172 74.2996 110.476 74.5784 110.698 74.9178L111.534 74.3696ZM110.291 73.227L110.767 72.3475C110.119 71.9966 109.394 71.8123 108.657 71.811L108.655 72.811L108.653 73.811C109.059 73.8117 109.458 73.9132 109.815 74.1064L110.291 73.227ZM108.655 72.811V71.811H45.387V72.811V73.811H108.655V72.811Z" fill="url(#paint2_linear_25_165)" mask="url(#path-3-inside-1_25_165)"/>
<path d="M53.6025 122.199C55.6048 122.199 57.5255 122.995 58.9414 124.41C60.3573 125.826 61.1523 127.747 61.1523 129.749C61.1523 131.752 60.3573 133.672 58.9414 135.088C57.5255 136.504 55.6049 137.299 53.6025 137.299C51.6002 137.299 49.6795 136.504 48.2637 135.088C46.8479 133.672 46.0527 131.752 46.0527 129.749C46.0528 127.747 46.8478 125.826 48.2637 124.41C49.6795 122.995 51.6002 122.199 53.6025 122.199ZM92.8682 122.199C94.8702 122.2 96.7903 122.995 98.2061 124.41C99.6219 125.826 100.418 127.747 100.418 129.749C100.418 131.752 99.6219 133.672 98.2061 135.088C96.7903 136.504 94.8703 137.299 92.8682 137.299C90.8658 137.299 88.9452 136.504 87.5293 135.088C86.1134 133.672 85.3184 131.752 85.3184 129.749C85.3184 127.747 86.1134 125.826 87.5293 124.41C88.9452 122.995 90.8659 122.199 92.8682 122.199Z" fill="url(#paint3_linear_25_165)" stroke="url(#paint4_linear_25_165)"/>
<path fill-rule="evenodd" clip-rule="evenodd" d="M153.966 28.5096L167.744 26.369L153.972 24.2285C148.582 23.3886 144.353 19.16 143.513 13.7707L141.372 0L139.231 13.7765C138.391 19.1658 134.162 23.4003 128.772 24.2343L115 26.369L128.772 28.5096C134.168 29.3495 138.397 33.5781 139.237 38.9732L141.378 52.7439L143.513 38.9732C144.353 33.5839 148.582 29.3495 153.972 28.5154L153.966 28.5096Z" fill="url(#paint5_linear_25_165)"/>
<path fill-rule="evenodd" clip-rule="evenodd" d="M102 27.5H11.9551C7.28552 27.5001 3.50011 31.2855 3.5 35.9551V155.508C3.50026 160.177 7.28561 163.964 11.9551 163.964H131.508C136.177 163.964 139.964 160.177 139.964 155.508V65.4629H143.464V155.508L143.46 155.816C143.299 162.174 138.174 167.299 131.816 167.46L131.508 167.464H11.9551L11.6465 167.46C5.18664 167.296 0.000259757 162.007 0 155.508V35.9551C0.000109787 29.3525 5.35252 24.0001 11.9551 24H102V27.5Z" fill="url(#paint6_linear_25_165)"/>
<defs>
<linearGradient id="paint0_linear_25_165" x1="468.5" y1="32" x2="468.5" y2="173" gradientUnits="userSpaceOnUse">
<stop stop-color="#D1AA49"/>
<stop offset="1" stop-color="#8F1AC2"/>
</linearGradient>
<linearGradient id="paint1_linear_25_165" x1="72" y1="55" x2="72" y2="114.799" gradientUnits="userSpaceOnUse">
<stop stop-color="#D1AA49"/>
<stop offset="1" stop-color="#8F1AC2"/>
</linearGradient>
<linearGradient id="paint2_linear_25_165" x1="72" y1="55" x2="72" y2="114.799" gradientUnits="userSpaceOnUse">
<stop stop-color="#D1AA49"/>
<stop offset="0.456731" stop-color="#7570E5"/>
<stop offset="1" stop-color="#8F1AC2"/>
</linearGradient>
<linearGradient id="paint3_linear_25_165" x1="73.2353" y1="121.699" x2="73.2353" y2="137.799" gradientUnits="userSpaceOnUse">
<stop stop-color="#D1AA49"/>
<stop offset="1" stop-color="#8F1AC2"/>
</linearGradient>
<linearGradient id="paint4_linear_25_165" x1="73.2353" y1="121.699" x2="73.2353" y2="137.799" gradientUnits="userSpaceOnUse">
<stop stop-color="#D1AA49"/>
<stop offset="0.456731" stop-color="#7570E5"/>
<stop offset="1" stop-color="#8F1AC2"/>
</linearGradient>
<linearGradient id="paint5_linear_25_165" x1="141.372" y1="0" x2="141.372" y2="52.7439" gradientUnits="userSpaceOnUse">
<stop stop-color="#D1AA49"/>
<stop offset="1" stop-color="#8F1AC2"/>
</linearGradient>
<linearGradient id="paint6_linear_25_165" x1="71.7319" y1="24" x2="71.7319" y2="167.464" gradientUnits="userSpaceOnUse">
<stop stop-color="#D1AA49"/>
<stop offset="0.456731" stop-color="#7570E5"/>
<stop offset="1" stop-color="#8F1AC2"/>
</linearGradient>
</defs>
</svg>
